<?xml version="1.0" encoding="UTF-8"?>
<svg id="Layer_2" data-name="Layer 2" xmlns="http://www.w3.org/2000/svg" viewBox="0 0 500 500">
  <defs>
    <style>
      .cls-1 {
        fill: #fff;
      }
    </style>
  </defs>
  <g id="Layer_1-2" data-name="Layer 1">
    <g>
      <circle cx="250" cy="250" r="250"/>
      <g>
        <path class="cls-1" d="m250,41.36c115.05,0,208.64,93.6,208.64,208.64s-93.6,208.64-208.64,208.64S41.36,365.05,41.36,250,134.95,41.36,250,41.36m0-41.36C111.93,0,0,111.93,0,250H0C0,388.07,111.93,500,250,500s250-111.93,250-250h0C500,111.93,388.07,0,250,0h0Z"/>
        <polygon class="cls-1" points="399.83 202.54 399.83 310.4 349.84 310.4 349.84 255.56 193.04 255.56 193.04 202.54 399.83 202.54"/>
        <polygon class="cls-1" points="100.17 202.54 100.17 310.4 150.16 310.4 150.16 255.56 306.96 255.56 306.96 202.54 100.17 202.54"/>
      </g>
    </g>
  </g>
</svg>