<?xml version="1.0" encoding="UTF-8"?>
<svg id="Layer_2" data-name="Layer 2" xmlns="http://www.w3.org/2000/svg" viewBox="0 0 500 649.22">
  <defs>
    <style>
      .cls-1 {
        fill: #fff;
      }
    </style>
  </defs>
  <g id="Layer_1-2" data-name="Layer 1">
    <g>
      <g>
        <circle cx="250" cy="250" r="229.32"/>
        <g>
          <path class="cls-1" d="m250,41.36c115.05,0,208.64,93.6,208.64,208.64s-93.6,208.64-208.64,208.64S41.36,365.05,41.36,250,134.95,41.36,250,41.36m0-41.36C111.93,0,0,111.93,0,250h0c0,138.07,111.93,250,250,250s250-111.93,250-250h0C500,111.93,388.07,0,250,0h0Z"/>
          <polygon class="cls-1" points="399.83 202.54 399.83 310.4 349.84 310.4 349.84 255.56 193.04 255.56 193.04 202.54 399.83 202.54"/>
          <polygon class="cls-1" points="100.17 202.54 100.17 310.4 150.16 310.4 150.16 255.56 306.96 255.56 306.96 202.54 100.17 202.54"/>
        </g>
      </g>
      <g>
        <path class="cls-1" d="m117.82,598.26c0,7.71,5.51,13.09,14.46,13.09,9.78,0,14.46-4.82,14.46-10.33,0-15.84-44.77-7.58-44.77-37.74,0-13.22,11.71-24.93,30.3-24.93,17.22,0,28.93,11.71,28.93,27.55h-15.84c0-7.71-4.82-12.4-13.09-12.4s-13.08,4.82-13.08,9.64c0,15.01,44.77,7.02,44.77,38.57,0,12.4-12.53,24.79-31.68,24.79s-30.99-11.71-30.99-28.24h16.53Z"/>
        <path class="cls-1" d="m178.84,576.91h-9.64v-13.09h4.13c5.1,0,7.58-2.48,7.58-7.58v-8.95h13.77v15.15h13.77v14.46h-13.77v26.17c0,5.51,3.44,8.95,8.95,8.95,1.51,0,2.34-.14,3.03-.28l1.1-.41v13.77c-.69.28-1.38.55-2.2.69-1.51.41-3.31.69-5.37.69-12.53,0-21.35-8.95-21.35-22.73v-26.86Z"/>
        <path class="cls-1" d="m262.58,619.61c-1.52,1.24-3.03,2.48-4.82,3.44-3.17,1.79-7.58,3.44-13.09,3.44-15.84,0-29.61-13.63-29.61-32.37s13.77-32.37,29.61-32.37c5.51,0,9.92,1.79,13.09,3.44,1.79.96,3.31,2.21,4.82,3.45l2.75-6.2h11.71v63.36h-11.71l-2.75-6.2Zm0-25.48c0-10.47-6.89-17.22-15.84-17.22s-15.84,6.75-15.84,17.22,6.89,17.22,15.84,17.22,15.84-6.75,15.84-17.22Z"/>
        <path class="cls-1" d="m305.7,628.56c.69,1.24,1.51,2.21,2.62,3.17,2.07,1.52,4.96,3.03,9.78,3.03,8.95,0,14.46-5.37,14.46-13.09v-4.82c-1.24,1.24-2.75,2.48-4.41,3.44-2.89,1.79-7.02,3.44-12.12,3.44-15.98,0-28.93-13.09-28.93-30.99s12.95-30.99,28.93-30.99c5.51,0,9.92,1.79,13.09,3.44,1.79.96,3.31,2.21,4.82,3.45l2.75-6.2h11.71v59.23c0,16.53-11.02,27.55-30.3,27.55-11.71,0-18.59-4.96-22.87-10.33-2.34-3.03-4.13-6.47-5.37-10.33h15.84Zm27.55-35.81c0-8.81-7.02-15.84-15.15-15.84s-15.15,7.03-15.15,15.84,6.75,15.84,15.15,15.84,15.15-7.02,15.15-15.84Z"/>
        <path class="cls-1" d="m418.37,606.52c-3.31,9.51-13.91,19.97-28.24,19.97-17.08,0-31.68-14.46-31.68-32.37s14.6-32.37,31.68-32.37,30.3,13.09,30.3,32.37c0,1.52-.28,2.89-.41,4.13l-.28,2.07h-44.08c1.52,6.2,6.2,11.02,14.46,11.02,4.27,0,6.89-1.1,8.95-2.34,1.1-.69,2.07-1.52,2.75-2.48h16.53Zm-13.09-17.22c-1.51-7.03-6.89-12.4-15.15-12.4s-13.64,5.37-15.15,12.4h30.3Z"/>
      </g>
    </g>
  </g>
</svg>