<?xml version="1.0" encoding="UTF-8"?>
<svg id="Layer_2" data-name="Layer 2" xmlns="http://www.w3.org/2000/svg" viewBox="0 0 981.85 241.46">
  <defs>
    <style>
      .cls-1 {
        fill: #fff;
      }
    </style>
  </defs>
  <g id="Layer_1-2" data-name="Layer 1">
    <g>
      <g>
        <path class="cls-1" d="m120.5,19.93c55.45,0,100.56,45.11,100.56,100.56s-45.11,100.56-100.56,100.56S19.93,175.95,19.93,120.5,65.05,19.93,120.5,19.93m0-19.93C53.95,0,0,53.95,0,120.5h0c0,66.55,53.95,120.5,120.5,120.5s120.5-53.95,120.5-120.5h0C241,53.95,187.05,0,120.5,0h0Z"/>
        <polygon class="cls-1" points="105.2 90.42 105.2 170.3 81.11 170.3 81.11 115.98 5.54 115.98 5.54 90.42 105.2 90.42"/>
        <polygon class="cls-1" points="135.79 90.42 135.79 170.3 159.89 170.3 159.89 115.98 235.46 115.98 235.46 90.42 135.79 90.42"/>
      </g>
      <g>
        <path class="cls-1" d="m313.18,83.94h-30.83v-22.16h84.79v22.16h-30.83v83.83h-23.12v-83.83Z"/>
        <path class="cls-1" d="m378.31,79.13h16.38l3.85,9.64c1.54-1.93,3.47-3.66,5.59-5.2,3.66-2.89,8.86-5.4,15.61-5.4,2.12,0,3.47.39,4.82.58l1.93.39v23.12l-2.12-.38c-1.35-.19-3.28-.58-5.59-.58-10.79,0-18.31,7.71-18.31,19.27v47.21h-22.16v-88.64Z"/>
        <path class="cls-1" d="m500.29,159.1c-2.12,1.73-4.24,3.47-6.74,4.82-4.43,2.5-10.6,4.82-18.31,4.82-22.16,0-41.43-19.08-41.43-45.29s19.27-45.29,41.43-45.29c7.71,0,13.88,2.51,18.31,4.82,2.5,1.35,4.62,3.08,6.74,4.82l3.85-8.67h16.38v88.64h-16.38l-3.85-8.67Zm0-35.65c0-14.64-9.63-24.09-22.16-24.09s-22.16,9.44-22.16,24.09,9.63,24.09,22.16,24.09,22.16-9.44,22.16-24.09Z"/>
        <path class="cls-1" d="m539.41,79.13h16.38l3.85,8.67c1.93-1.73,4.24-3.47,6.75-4.82,4.43-2.31,10.6-4.82,18.31-4.82,22.16,0,41.43,19.08,41.43,45.29s-19.27,45.29-41.43,45.29c-7.52,0-12.91-2.12-16.96-4.24-2.31-1.35-4.43-2.7-6.17-4.43v38.54h-22.16v-119.48Zm64.56,44.32c0-14.64-9.63-24.09-22.16-24.09s-22.16,9.44-22.16,24.09,9.64,24.09,22.16,24.09,22.16-9.44,22.16-24.09Z"/>
        <path class="cls-1" d="m701.86,159.1c-2.12,1.73-4.24,3.47-6.74,4.82-4.43,2.5-10.6,4.82-18.31,4.82-22.16,0-41.43-19.08-41.43-45.29s19.27-45.29,41.43-45.29c7.13,0,12.91,2.31,16.96,4.43,2.31,1.35,4.43,2.7,6.17,4.24v-40.47h22.16v121.4h-16.38l-3.85-8.67Zm0-35.65c0-14.64-9.63-24.09-22.16-24.09s-22.16,9.44-22.16,24.09,9.63,24.09,22.16,24.09,22.16-9.44,22.16-24.09Z"/>
        <path class="cls-1" d="m821.72,123.45c0,25.05-20.43,45.29-44.32,45.29s-44.32-20.23-44.32-45.29,20.43-45.29,44.32-45.29,44.32,20.23,44.32,45.29Zm-66.48,0c0,14.65,9.63,24.09,22.16,24.09s22.16-9.44,22.16-24.09-9.63-24.09-22.16-24.09-22.16,9.44-22.16,24.09Z"/>
        <path class="cls-1" d="m919.61,123.45c0,25.05-20.43,45.29-44.32,45.29s-44.32-20.23-44.32-45.29,20.43-45.29,44.32-45.29,44.32,20.23,44.32,45.29Zm-66.48,0c0,14.65,9.63,24.09,22.16,24.09s22.16-9.44,22.16-24.09-9.63-24.09-22.16-24.09-22.16,9.44-22.16,24.09Z"/>
        <path class="cls-1" d="m933.67,79.13h16.38l3.85,9.64c1.54-1.93,3.47-3.66,5.59-5.2,3.66-2.89,8.86-5.4,15.61-5.4,2.12,0,3.47.39,4.82.58l1.93.39v23.12l-2.12-.38c-1.35-.19-3.28-.58-5.59-.58-10.79,0-18.31,7.71-18.31,19.27v47.21h-22.16v-88.64Z"/>
      </g>
      <g>
        <path class="cls-1" d="m732.15,221.22c-2.67,11.04-12.05,20.24-25.3,20.24-14.72,0-27.6-12.88-27.6-29.44s12.88-29.44,27.6-29.44c12.88,0,22.17,9.2,24.84,20.24h-9.2c-1.93-6.9-7.18-12.42-15.64-12.42-9.57,0-18.86,9.11-18.86,21.62s9.29,21.62,18.86,21.62c8.92,0,14.17-5.61,16.1-12.42h9.2Z"/>
        <path class="cls-1" d="m739.33,199.6h5.98l1.84,4.14c.74-.83,1.66-1.66,2.67-2.3,1.75-1.1,4.32-2.3,7.91-2.3,1.01,0,1.56.18,2.02.28l.74.18v8.28l-.83-.18c-.64-.09-1.29-.28-1.93-.28-5.61,0-10.12,4.69-10.12,10.12v23.46h-8.28v-41.4Z"/>
        <path class="cls-1" d="m802.16,229.04c-2.67,6.9-8.28,12.42-17.94,12.42-11.04,0-19.78-8.74-19.78-21.16s8.65-21.16,19.32-21.16,19.32,8.74,19.32,21.16c0,1.01-.18,1.93-.28,2.58l-.18,1.1h-29.44c.46,5.15,5.06,9.66,11.04,9.66,5.06,0,7.82-2.76,9.2-4.6h8.74Zm-6.9-11.96c-1.01-5.98-4.97-10.12-11.5-10.12-5.52,0-9.57,4.14-10.58,10.12h22.08Z"/>
        <path class="cls-1" d="m835.1,236.86c-.83.83-1.75,1.66-2.85,2.3-1.93,1.2-4.97,2.3-9.11,2.3-9.2,0-14.26-5.06-14.26-12.42,0-8.28,5.52-13.8,25.76-13.8v-1.38c0-4.14-2.67-6.9-7.82-6.9-5.52,0-7.82,2.21-8.28,5.06h-8.28c.46-7.36,6.35-12.88,16.56-12.88,9.66,0,16.1,6.44,16.1,14.72v27.14h-5.98l-1.84-4.14Zm-.46-14.26c-14.72,0-17.48,2.76-17.48,6.9,0,2.3,2.3,4.6,6.44,4.6,6.99,0,11.04-4.14,11.04-9.29v-2.21Z"/>
        <path class="cls-1" d="m855.16,207.42h-7.36v-7.82h3.22c3.22,0,5.52-2.3,5.52-5.52v-5.52h6.9v11.04h9.2v7.82h-9.2v19.78c0,3.68,2.76,6.44,6.44,6.44.64,0,1.29-.09,1.93-.18l.83-.28v7.36c-.37.18-.83.37-1.29.46-.92.28-2.02.46-3.31.46-7.36,0-12.88-5.52-12.88-14.26v-19.78Z"/>
        <path class="cls-1" d="m890.39,188.1c0,2.85-2.21,5.06-5.06,5.06s-5.06-2.21-5.06-5.06,2.21-5.06,5.06-5.06,5.06,2.21,5.06,5.06Zm-9.2,11.5h8.28v41.4h-8.28v-41.4Z"/>
        <path class="cls-1" d="m894.81,199.6h8.74l11.5,29.9,11.5-29.9h8.74l-16.56,41.4h-7.36l-16.56-41.4Z"/>
        <path class="cls-1" d="m976.04,229.04c-2.67,6.9-8.28,12.42-17.94,12.42-11.04,0-19.78-8.74-19.78-21.16s8.65-21.16,19.32-21.16,19.32,8.74,19.32,21.16c0,1.01-.18,1.93-.28,2.58l-.18,1.1h-29.44c.46,5.15,5.06,9.66,11.04,9.66,5.06,0,7.82-2.76,9.2-4.6h8.74Zm-6.9-11.96c-1.01-5.98-4.97-10.12-11.5-10.12-5.52,0-9.57,4.14-10.58,10.12h22.08Z"/>
      </g>
    </g>
  </g>
</svg>